<svg xmlns="http://www.w3.org/2000/svg" viewBox="0 0 500 500"><style type="text/css">  
	.logo0{fill:#93DACF;}
	.logo1{fill:#0095A9;}
	.logo2{fill:#FF5C35;}
	.logo3{fill:#FFBF3C;}
	.logo4{fill:#FFFFFF;}
</style><path class="logo0" d="M165.8 251.6c-0.8 0-1.5-0.7-1.5-1.5 0-3 0.9-5.8 2.7-8.2 0.5-0.7 1.4-0.8 2.1-0.3 0.7 0.5 0.8 1.4 0.3 2.1 -1.4 1.9-2.1 4.1-2.1 6.5C167.3 250.9 166.7 251.6 165.8 251.6z"/><path class="logo1" d="M178.3 264.1c-0.3 0-0.6 0-0.8 0 -0.9-0.1-1.8-0.2-2.7-0.4 -0.8-0.2-1.3-1-1.1-1.8 0.2-0.8 1-1.3 1.8-1.1 0.7 0.2 1.4 0.3 2.2 0.3 0.2 0 0.4 0 0.7 0 3.7 0 7.1-1.8 9.2-4.9 0.2-0.4 0.5-0.8 0.7-1.2 0.4-0.7 1.3-1 2-0.7 0.7 0.4 1 1.3 0.7 2 -0.3 0.5-0.5 1-0.9 1.5C187.4 261.8 183.1 264.1 178.3 264.1z"/><path class="logo2" d="M177.6 264.1C177.6 264.1 177.5 264.1 177.6 264.1c-3.9-0.2-7.3-1.9-9.8-4.8 -0.5-0.6-0.5-1.6 0.1-2.1 0.6-0.5 1.6-0.5 2.1 0.1 2 2.3 4.7 3.6 7.7 3.8 0.8 0 1.5 0.8 1.4 1.6C179 263.5 178.4 264.1 177.6 264.1z"/><path class="logo3" d="M188.8 258.5c-0.3 0-0.6-0.1-0.8-0.2 -0.7-0.5-0.9-1.4-0.4-2.1 0.5-0.7 0.9-1.5 1.2-2.3 0.3-0.8 1.1-1.2 1.9-0.9 0.8 0.3 1.2 1.1 0.9 1.9 -0.4 1-0.9 2.1-1.5 3C189.7 258.3 189.3 258.5 188.8 258.5z"/><path class="logo0" d="M189.8 246.6c-0.6 0-1.1-0.3-1.4-0.9 -0.4-0.8-0.8-1.6-1.4-2.3 -2.1-2.7-5.3-4.3-8.7-4.3 -0.1 0-0.3 0-0.4 0 -0.7 0-1.5 0.1-2.2 0.3 -0.8 0.2-1.6-0.3-1.8-1.1 -0.2-0.8 0.3-1.6 1.1-1.8 0.9-0.2 1.9-0.4 2.8-0.4 0.2 0 0.4 0 0.6 0 4.4 0 8.4 2 11.1 5.4 0.7 0.9 1.3 1.9 1.8 3 0.3 0.8 0 1.6-0.8 2C190.2 246.6 190 246.6 189.8 246.6z"/><path class="logo1" d="M173 240.3c-0.6 0-1.1-0.3-1.4-0.9 -0.4-0.7 0-1.6 0.7-2 1.7-0.8 3.5-1.2 5.4-1.3 0.8 0 1.5 0.6 1.6 1.4 0 0.8-0.6 1.5-1.4 1.6 -1.5 0.1-2.9 0.4-4.2 1C173.5 240.3 173.2 240.3 173 240.3z"/><path class="logo2" d="M190.7 249.7c-0.7 0-1.4-0.5-1.5-1.3 -0.3-1.8-1-3.6-2.2-5 -0.5-0.7-0.4-1.6 0.3-2.1 0.7-0.5 1.6-0.4 2.1 0.3 1.4 1.9 2.4 4.1 2.8 6.4 0.1 0.8-0.4 1.6-1.3 1.7C190.8 249.7 190.8 249.7 190.7 249.7z"/><path class="logo2" d="M169.6 228.7c-0.8 0-1.6-0.5-1.9-1.3 -0.4-1 0.1-2.2 1.2-2.6 3.9-1.4 8-2 12.2-1.5 1.1 0.1 1.9 1.1 1.8 2.2 -0.1 1.1-1.1 1.9-2.2 1.8 -3.5-0.4-7.1 0.1-10.4 1.3C170.1 228.6 169.9 228.7 169.6 228.7z"/><path class="logo2" d="M158.3 267.1c-0.6 0-1.2-0.3-1.6-0.8 -1-1.3-1.9-2.8-2.6-4.2 -1.7-3.4-2.6-7.1-2.8-11 0-0.3 0-0.7 0-1 0-3.1 0.5-6.1 1.5-9 0.4-1 1.5-1.6 2.6-1.2 1 0.4 1.6 1.5 1.2 2.6 -0.9 2.5-1.3 5-1.3 7.7 0 0.3 0 0.6 0 0.9 0.1 3.3 0.9 6.4 2.4 9.3 0.6 1.3 1.4 2.5 2.2 3.6 0.7 0.9 0.5 2.1-0.4 2.8C159.2 267 158.8 267.1 158.3 267.1z"/><path class="logo3" d="M153.4 253.1c-1.1 0-2-0.8-2-1.9 0-0.3 0-0.7 0-1 0-6.6 2.4-12.9 6.7-17.8 0.7-0.8 2-0.9 2.8-0.2 0.8 0.7 0.9 2 0.2 2.8 -3.7 4.2-5.7 9.6-5.7 15.2 0 0.3 0 0.6 0 0.9C155.4 252.1 154.5 253 153.4 253.1 153.4 253.1 153.4 253.1 153.4 253.1z"/><path class="logo1" d="M160.8 269.9c-0.5 0-1-0.2-1.4-0.6 -2.1-2.1-3.9-4.6-5.2-7.2 -0.5-1-0.1-2.2 0.9-2.7 1-0.5 2.2-0.1 2.7 0.9 1.1 2.3 2.6 4.4 4.5 6.2 0.8 0.8 0.8 2 0 2.8C161.8 269.7 161.3 269.9 160.8 269.9z"/><path class="logo0" d="M178.3 277.1c-0.7 0-1.5 0-2.2-0.1 -1.1-0.1-1.9-1.1-1.8-2.2 0.1-1.1 1.1-1.9 2.2-1.8 3.5 0.3 7.1-0.2 10.3-1.5 1-0.4 2.2 0.1 2.6 1.1 0.4 1-0.1 2.2-1.1 2.6C185.1 276.5 181.8 277.1 178.3 277.1z"/><path class="logo3" d="M203.3 252.1c-1.1 0-2-0.9-2-2 0-0.3 0-0.7 0-1 -0.1-2.8-0.8-5.6-1.9-8.2 -0.4-1 0-2.2 1-2.6 1-0.4 2.2 0 2.6 1 1.3 3 2.1 6.3 2.2 9.6 0 0.4 0 0.8 0 1.2C205.3 251.2 204.4 252.1 203.3 252.1z"/><path class="logo2" d="M197.5 268.2c-0.5 0-0.9-0.2-1.3-0.5 -0.8-0.7-1-2-0.2-2.8 3.5-4.1 5.4-9.4 5.4-14.8 0-0.3 0-0.7 0-1 0-1.1 0.8-2 1.9-2.1 1.1 0 2 0.8 2.1 1.9 0 0.4 0 0.8 0 1.2 0 6.3-2.2 12.5-6.3 17.3C198.6 267.9 198.1 268.2 197.5 268.2z"/><path class="logo1" d="M201.3 242.2c-0.8 0-1.5-0.4-1.8-1.2 -1.2-2.8-3-5.3-5.2-7.5 -0.8-0.8-0.8-2-0.1-2.8 0.8-0.8 2-0.8 2.8-0.1 2.6 2.5 4.7 5.5 6.1 8.8 0.4 1 0 2.2-1 2.6C201.8 242.1 201.5 242.2 201.3 242.2z"/><path class="logo0" d="M142.4 241.8c-0.2 0-0.5 0-0.7-0.1 -1.3-0.4-2.1-1.8-1.7-3.1 0.3-0.9 0.6-1.8 0.9-2.7 2.4-6.3 6.4-11.9 11.6-16.3 1.2-1 2.5-1.9 3.8-2.8 1.2-0.8 2.7-0.4 3.5 0.7 0.8 1.2 0.4 2.7-0.7 3.5 -1.1 0.8-2.2 1.6-3.3 2.5 -4.5 3.8-8 8.8-10.1 14.3 -0.3 0.8-0.6 1.6-0.8 2.4C144.5 241.1 143.5 241.8 142.4 241.8z"/><path class="logo3" d="M141.8 244.3c-0.2 0-0.4 0-0.6-0.1 -1.3-0.3-2.2-1.6-1.9-3 0.4-1.8 1-3.6 1.6-5.4 0.5-1.3 1.9-1.9 3.2-1.4 1.3 0.5 1.9 1.9 1.4 3.2 -0.6 1.5-1.1 3.1-1.4 4.7C143.9 243.5 142.9 244.3 141.8 244.3z"/><path class="logo1" d="M154.2 223.9c-0.7 0-1.4-0.3-1.9-0.9 -0.9-1.1-0.8-2.6 0.3-3.5 2.4-2 5-3.8 7.8-5.2 1.2-0.6 2.7-0.1 3.4 1.1 0.6 1.2 0.1 2.7-1.1 3.4 -2.4 1.2-4.8 2.8-6.9 4.5C155.3 223.8 154.7 223.9 154.2 223.9z"/><path class="logo2" d="M161.5 286.1c-0.4 0-0.8-0.1-1.1-0.3 -5.7-2.9-10.6-7.1-14.4-12.2 -0.8-1.1-0.6-2.7 0.5-3.5 1.1-0.8 2.7-0.6 3.5 0.5 3.3 4.5 7.6 8.2 12.6 10.7 1.2 0.6 1.7 2.1 1.1 3.4C163.3 285.6 162.4 286.1 161.5 286.1z"/><path class="logo1" d="M197.1 285.1c-0.9 0-1.7-0.4-2.2-1.2 -0.7-1.2-0.3-2.7 0.9-3.4 3.5-2 6.6-4.7 9.2-7.8 3-3.5 5.2-7.5 6.6-11.9 0.2-0.6 0.4-1.2 0.5-1.9 0.3-1.3 1.7-2.1 3-1.8 1.3 0.3 2.1 1.7 1.8 3 -0.2 0.7-0.4 1.4-0.6 2.1 -1.6 5-4.1 9.6-7.5 13.6 -3 3.6-6.5 6.5-10.6 8.9C198 285 197.6 285.1 197.1 285.1z"/><path class="logo3" d="M195.6 285.9c-0.9 0-1.8-0.5-2.2-1.3 -0.6-1.2-0.2-2.7 1.1-3.4 4.1-2.1 7.7-5 10.7-8.6 0.9-1.1 2.5-1.2 3.5-0.3 1.1 0.9 1.2 2.5 0.3 3.5 -3.4 4.1-7.5 7.3-12.2 9.8C196.4 285.8 196 285.9 195.6 285.9z"/><path class="logo0" d="M214.1 264c-0.2 0-0.5 0-0.8-0.1 -1.3-0.4-2-1.8-1.6-3.1 0.4-1.2 0.7-2.5 1-3.8 0.3-1.4 1.6-2.2 2.9-2 1.4 0.3 2.2 1.6 2 2.9 -0.3 1.4-0.7 2.9-1.1 4.3C216.1 263.3 215.2 264 214.1 264z"/><path class="logo2" d="M208.1 229.9c-0.8 0-1.5-0.3-2-1 -3.1-4-7.1-7.4-11.6-9.8 -1.2-0.6-1.7-2.2-1.1-3.4 0.6-1.2 2.2-1.7 3.4-1.1 5.1 2.7 9.7 6.5 13.2 11.2 0.8 1.1 0.6 2.7-0.5 3.5C209.2 229.7 208.7 229.9 208.1 229.9z"/><path class="logo2" d="M117.6 238.5c-0.2 0-0.5 0-0.7-0.1 -1.6-0.4-2.6-2-2.2-3.6 1.3-5.6 3.4-11.1 6.2-16.1 0.8-1.5 2.6-2 4.1-1.2 1.5 0.8 2 2.6 1.2 4.1 -2.5 4.6-4.4 9.5-5.7 14.6C120.1 237.6 118.9 238.5 117.6 238.5z"/><path class="logo1" d="M172.9 315.4c-0.1 0-0.2 0-0.3 0 -8.6-0.7-16.8-3.1-24.5-7.1 -1.5-0.8-2-2.6-1.3-4 0.8-1.5 2.6-2 4-1.3 6.9 3.6 14.4 5.8 22.2 6.5 1.7 0.1 2.9 1.6 2.7 3.2C175.7 314.2 174.4 315.4 172.9 315.4z"/><path class="logo0" d="M217.2 302.1c-0.9 0-1.8-0.4-2.3-1.1 -1-1.3-0.8-3.2 0.5-4.2 4.2-3.3 7.9-7.1 11-11.4 1-1.3 2.9-1.6 4.2-0.6 1.3 1 1.6 2.9 0.6 4.2 -3.5 4.7-7.5 8.9-12.1 12.6C218.5 301.8 217.9 302.1 217.2 302.1z"/><path class="logo3" d="M226.6 213.4c-0.9 0-1.7-0.4-2.3-1.1 -5.2-6.2-11.4-11.3-18.6-15 -1.5-0.8-2-2.6-1.3-4 0.8-1.5 2.6-2 4-1.3 7.9 4.1 14.8 9.7 20.4 16.5 1.1 1.3 0.9 3.2-0.4 4.2C227.9 213.2 227.3 213.4 226.6 213.4z"/><path class="logo0" d="M183.8 190.9c-0.1 0-0.2 0-0.3 0 -1.7-0.1-3.4-0.2-5.2-0.2 -1.7 0-3-1.3-3-3s1.3-3 3-3c1.9 0 3.8 0.1 5.7 0.2 1.7 0.1 2.9 1.6 2.7 3.2C186.6 189.7 185.3 190.9 183.8 190.9z"/><path class="logo4" d="M234.7 224.8h3.6l12 15.5v-15.5h3.9v22.4h-3.3l-12.4-15.9v15.9h-3.9V224.8z"/><path class="logo4" d="M269.3 247.2v-2.1c-1.2 1.4-2.9 2.4-5.5 2.4 -3.2 0-6-1.8-6-5.2v-0.1c0-3.7 2.9-5.5 6.8-5.5 2 0 3.4 0.3 4.7 0.7v-0.3c0-2.3-1.5-3.6-4.2-3.6 -1.9 0-3.3 0.4-4.8 1.1l-1.1-3.1c1.9-0.8 3.7-1.4 6.4-1.4 5 0 7.4 2.6 7.4 7.1v10H269.3zM269.3 240.1c-1-0.4-2.4-0.7-3.9-0.7 -2.4 0-3.9 1-3.9 2.6v0.1c0 1.6 1.4 2.5 3.3 2.5 2.6 0 4.5-1.4 4.5-3.6V240.1z"/><path class="logo4" d="M275.6 245l1.7-2.6c1.8 1.4 3.8 2.1 5.5 2.1 1.7 0 2.6-0.7 2.6-1.8v-0.1c0-1.3-1.8-1.8-3.8-2.4 -2.5-0.7-5.3-1.7-5.3-5v-0.1c0-3.2 2.7-5.2 6-5.2 2.1 0 4.4 0.7 6.2 1.9l-1.5 2.8c-1.6-1-3.4-1.6-4.8-1.6 -1.5 0-2.4 0.7-2.4 1.7v0.1c0 1.2 1.8 1.7 3.8 2.4 2.5 0.8 5.2 1.9 5.2 4.9v0.1c0 3.6-2.8 5.3-6.3 5.3C280.3 247.5 277.7 246.6 275.6 245z"/><path class="logo4" d="M292.2 223.8h3.9v9.1c1.1-1.6 2.7-3 5.3-3 3.8 0 6 2.6 6 6.5v10.8h-3.9v-9.6c0-2.6-1.3-4.1-3.6-4.1 -2.2 0-3.8 1.6-3.8 4.2v9.5h-3.9V223.8z"/><path class="logo4" d="M308.7 230.3h4.2l4.5 12.4 4.6-12.4h4.1l-6.9 17h-3.5L308.7 230.3z"/><path class="logo4" d="M328.3 224h4.2v3.7h-4.2V224zM328.5 230.3h3.9v16.9h-3.9V230.3z"/><path class="logo4" d="M336.6 223.8h3.9v23.4h-3.9V223.8z"/><path class="logo4" d="M344.7 223.8h3.9v23.4h-3.9V223.8z"/><path class="logo4" d="M351.8 238.8L351.8 238.8c0-4.9 3.4-8.9 8.3-8.9 5.4 0 8.1 4.2 8.1 9.1 0 0.4 0 0.7-0.1 1.1h-12.4c0.4 2.8 2.4 4.3 4.9 4.3 1.9 0 3.2-0.7 4.6-2l2.3 2c-1.6 1.9-3.8 3.2-6.9 3.2C355.6 247.6 351.8 244 351.8 238.8zM364.3 237.5c-0.3-2.5-1.7-4.4-4.3-4.4 -2.4 0-4 1.8-4.4 4.4H364.3z"/><path class="logo4" d="M234.8 252.2h8.2c2.2 0 4.1 0.7 5.2 1.8 0.8 0.8 1.3 1.9 1.3 3.1v0.1c0 2.7-1.8 4.1-3.4 4.7 2.4 0.6 4.5 2 4.5 4.8v0.1c0 3.3-2.8 5.4-7.2 5.4h-8.7V252.2zM242.8 261.4c3 0 5.1-1.5 5.1-4.1v-0.1c0-2.2-1.8-3.7-5-3.7h-6.7v7.8H242.8zM243.5 270.8c3.4 0 5.6-1.6 5.6-4.1v-0.1c0-2.5-2.1-3.9-6.1-3.9h-6.8v8H243.5z"/><path class="logo4" d="M254.4 251.9h1.7v1.9h-1.7V251.9zM254.6 257.6h1.4v14.5h-1.4V257.6z"/><path class="logo4" d="M259.5 265L259.5 265c0-4.1 3.2-7.7 7.5-7.7 4.3 0 7.4 3.5 7.4 7.5v0.1c0 4.1-3.2 7.6-7.5 7.6C262.6 272.5 259.5 269 259.5 265zM272.9 265L272.9 265c0-3.6-2.6-6.4-6-6.4 -3.4 0-5.9 2.8-5.9 6.2v0.1c0 3.5 2.6 6.3 6 6.3C270.4 271.2 272.9 268.4 272.9 265z"/><path class="logo4" d="M276.3 270.4l0.8-1.1c1.6 1.2 3.4 1.9 5.2 1.9 2 0 3.5-1.1 3.5-2.8v-0.1c0-1.7-1.8-2.3-3.8-2.9 -2.4-0.7-5-1.4-5-4v-0.1c0-2.3 2-4 4.8-4 1.7 0 3.7 0.6 5.2 1.6l-0.7 1.2c-1.3-0.9-2.9-1.5-4.5-1.5 -2 0-3.3 1.1-3.3 2.5v0.1c0 1.6 2 2.2 4 2.8 2.3 0.7 4.8 1.5 4.8 4.1v0.1c0 2.6-2.2 4.2-5 4.2C280.2 272.5 277.9 271.6 276.3 270.4z"/><path class="logo4" d="M289.8 265L289.8 265c0-4.1 3.2-7.7 7.4-7.7 2.7 0 4.4 1.3 5.8 2.7l-1 1c-1.3-1.3-2.7-2.4-4.8-2.4 -3.3 0-5.9 2.8-5.9 6.2v0.1c0 3.5 2.6 6.3 6 6.3 2.1 0 3.6-1.1 4.9-2.4l1 0.9c-1.5 1.7-3.2 2.9-5.9 2.9C293 272.5 289.8 269 289.8 265z"/><path class="logo4" d="M305.9 251.9h1.7v1.9h-1.7V251.9zM306.1 257.6h1.4v14.5h-1.4V257.6z"/><path class="logo4" d="M311 264.9L311 264.9c0-4.3 3-7.6 6.9-7.6 4.1 0 6.7 3.3 6.7 7.6 0 0.3 0 0.3 0 0.6h-12.1c0.3 3.6 2.8 5.7 5.7 5.7 2.3 0 3.8-1 5-2.3l1 0.9c-1.5 1.6-3.2 2.7-6 2.7C314.3 272.5 311 269.5 311 264.9zM323.1 264.2c-0.2-2.9-1.9-5.6-5.2-5.6 -2.9 0-5.1 2.4-5.4 5.6H323.1z"/><path class="logo4" d="M328 257.6h1.4v2.7c1-1.7 2.6-3 5.2-3 3.7 0 5.8 2.5 5.8 6v8.9h-1.4v-8.6c0-3-1.7-5-4.6-5 -2.8 0-5 2.2-5 5.2v8.4H328V257.6z"/><path class="logo4" d="M343.7 265L343.7 265c0-4.1 3.2-7.7 7.4-7.7 2.7 0 4.4 1.3 5.8 2.7l-1 1c-1.3-1.3-2.7-2.4-4.8-2.4 -3.3 0-5.9 2.8-5.9 6.2v0.1c0 3.5 2.6 6.3 6 6.3 2.1 0 3.6-1.1 4.9-2.4l1 0.9c-1.5 1.7-3.2 2.9-5.9 2.9C347 272.5 343.7 269 343.7 265z"/><path class="logo4" d="M358.9 264.9L358.9 264.9c0-4.3 3-7.6 6.9-7.6 4.1 0 6.7 3.3 6.7 7.6 0 0.3 0 0.3 0 0.6h-12.1c0.3 3.6 2.8 5.7 5.7 5.7 2.3 0 3.8-1 5-2.3l1 0.9c-1.5 1.6-3.2 2.7-6 2.7C362.2 272.5 358.9 269.5 358.9 264.9zM370.9 264.2c-0.2-2.9-1.9-5.6-5.2-5.6 -2.9 0-5.1 2.4-5.4 5.6H370.9z"/><path class="logo4" d="M374.5 270.4l0.8-1.1c1.6 1.2 3.4 1.9 5.2 1.9 2 0 3.5-1.1 3.5-2.8v-0.1c0-1.7-1.8-2.3-3.8-2.9 -2.4-0.7-5-1.4-5-4v-0.1c0-2.3 2-4 4.8-4 1.7 0 3.7 0.6 5.2 1.6l-0.7 1.2c-1.3-0.9-2.9-1.5-4.5-1.5 -2 0-3.3 1.1-3.3 2.5v0.1c0 1.6 2 2.2 4 2.8 2.3 0.7 4.8 1.5 4.8 4.1v0.1c0 2.6-2.2 4.2-5 4.2C378.3 272.5 376 271.6 374.5 270.4z"/></svg>