<svg xmlns="http://www.w3.org/2000/svg" viewBox="0 0 270.3 131.8"><style type="text/css">  
	.st0{fill:#93DACF;}
	.st1{fill:#0095A9;}
	.st2{fill:#FF5C35;}
	.st3{fill:#FFBF3C;}
	.st4{fill:#FFFFFF;}
</style><path class="st0" d="M50.7 67.3c-0.8 0-1.5-0.7-1.5-1.5 0-3 0.9-5.8 2.7-8.2 0.5-0.7 1.4-0.8 2.1-0.3 0.7 0.5 0.8 1.4 0.3 2.1 -1.4 1.9-2.1 4.1-2.1 6.5C52.2 66.6 51.6 67.3 50.7 67.3z"/><path class="st1" d="M63.2 79.8c-0.3 0-0.6 0-0.8 0 -0.9-0.1-1.8-0.2-2.7-0.4 -0.8-0.2-1.3-1-1.1-1.8s1-1.3 1.8-1.1c0.7 0.2 1.4 0.3 2.2 0.3 0.2 0 0.4 0 0.7 0 3.7 0 7.1-1.8 9.2-4.9 0.2-0.4 0.5-0.8 0.7-1.2 0.4-0.7 1.3-1 2-0.7 0.7 0.4 1 1.3 0.7 2 -0.3 0.5-0.5 1-0.9 1.5C72.3 77.5 68 79.8 63.2 79.8z"/><path class="st2" d="M62.5 79.8C62.5 79.8 62.4 79.8 62.5 79.8c-3.9-0.2-7.3-1.9-9.8-4.8 -0.5-0.6-0.5-1.6 0.1-2.1s1.6-0.5 2.1 0.1c2 2.3 4.7 3.6 7.7 3.8 0.8 0 1.5 0.8 1.4 1.6C63.9 79.2 63.3 79.8 62.5 79.8z"/><path class="st3" d="M73.7 74.2c-0.3 0-0.6-0.1-0.8-0.2 -0.7-0.5-0.9-1.4-0.4-2.1 0.5-0.7 0.9-1.5 1.2-2.3s1.1-1.2 1.9-0.9c0.8 0.3 1.2 1.1 0.9 1.9 -0.4 1-0.9 2.1-1.5 3C74.6 74 74.2 74.2 73.7 74.2z"/><path class="st0" d="M74.7 62.3c-0.6 0-1.1-0.3-1.4-0.9 -0.4-0.8-0.8-1.6-1.4-2.3 -2.1-2.7-5.3-4.3-8.7-4.3 -0.1 0-0.3 0-0.4 0 -0.7 0-1.5 0.1-2.2 0.3 -0.8 0.2-1.6-0.3-1.8-1.1s0.3-1.6 1.1-1.8c0.9-0.2 1.9-0.4 2.8-0.4 0.2 0 0.4 0 0.6 0 4.4 0 8.4 2 11.1 5.4 0.7 0.9 1.3 1.9 1.8 3 0.3 0.8 0 1.6-0.8 2C75.1 62.3 74.9 62.3 74.7 62.3z"/><path class="st1" d="M57.9 56c-0.6 0-1.1-0.3-1.4-0.9 -0.4-0.7 0-1.6 0.7-2 1.7-0.8 3.5-1.2 5.4-1.3 0.8 0 1.5 0.6 1.6 1.4 0 0.8-0.6 1.5-1.4 1.6 -1.5 0.1-2.9 0.4-4.2 1C58.4 56 58.1 56 57.9 56z"/><path class="st2" d="M75.6 65.4c-0.7 0-1.4-0.5-1.5-1.3 -0.3-1.8-1-3.6-2.2-5 -0.5-0.7-0.4-1.6 0.3-2.1s1.6-0.4 2.1 0.3c1.4 1.9 2.4 4.1 2.8 6.4 0.1 0.8-0.4 1.6-1.3 1.7C75.7 65.4 75.7 65.4 75.6 65.4z"/><path class="st2" d="M54.5 44.4c-0.8 0-1.6-0.5-1.9-1.3 -0.4-1 0.1-2.2 1.2-2.6 3.9-1.4 8-2 12.2-1.5 1.1 0.1 1.9 1.1 1.8 2.2 -0.1 1.1-1.1 1.9-2.2 1.8 -3.5-0.4-7.1 0.1-10.4 1.3C55 44.3 54.8 44.4 54.5 44.4z"/><path class="st2" d="M43.2 82.8c-0.6 0-1.2-0.3-1.6-0.8 -1-1.3-1.9-2.8-2.6-4.2 -1.7-3.4-2.6-7.1-2.8-11 0-0.3 0-0.7 0-1 0-3.1 0.5-6.1 1.5-9 0.4-1 1.5-1.6 2.6-1.2 1 0.4 1.6 1.5 1.2 2.6 -0.9 2.5-1.3 5-1.3 7.7 0 0.3 0 0.6 0 0.9 0.1 3.3 0.9 6.4 2.4 9.3 0.6 1.3 1.4 2.5 2.2 3.6 0.7 0.9 0.5 2.1-0.4 2.8C44.1 82.7 43.7 82.8 43.2 82.8z"/><path class="st3" d="M38.3 68.8c-1.1 0-2-0.8-2-1.9 0-0.3 0-0.7 0-1 0-6.6 2.4-12.9 6.7-17.8 0.7-0.8 2-0.9 2.8-0.2s0.9 2 0.2 2.8c-3.7 4.2-5.7 9.6-5.7 15.2 0 0.3 0 0.6 0 0.9C40.3 67.8 39.4 68.7 38.3 68.8L38.3 68.8z"/><path class="st1" d="M45.7 85.6c-0.5 0-1-0.2-1.4-0.6 -2.1-2.1-3.9-4.6-5.2-7.2 -0.5-1-0.1-2.2 0.9-2.7s2.2-0.1 2.7 0.9c1.1 2.3 2.6 4.4 4.5 6.2 0.8 0.8 0.8 2 0 2.8C46.7 85.4 46.2 85.6 45.7 85.6z"/><path class="st0" d="M63.2 92.8c-0.7 0-1.5 0-2.2-0.1 -1.1-0.1-1.9-1.1-1.8-2.2 0.1-1.1 1.1-1.9 2.2-1.8 3.5 0.3 7.1-0.2 10.3-1.5 1-0.4 2.2 0.1 2.6 1.1 0.4 1-0.1 2.2-1.1 2.6C70 92.2 66.7 92.8 63.2 92.8z"/><path class="st3" d="M88.2 67.8c-1.1 0-2-0.9-2-2 0-0.3 0-0.7 0-1 -0.1-2.8-0.8-5.6-1.9-8.2 -0.4-1 0-2.2 1-2.6 1-0.4 2.2 0 2.6 1 1.3 3 2.1 6.3 2.2 9.6 0 0.4 0 0.8 0 1.2C90.2 66.9 89.3 67.8 88.2 67.8z"/><path class="st2" d="M82.4 83.9c-0.5 0-0.9-0.2-1.3-0.5 -0.8-0.7-1-2-0.2-2.8 3.5-4.1 5.4-9.4 5.4-14.8 0-0.3 0-0.7 0-1 0-1.1 0.8-2 1.9-2.1 1.1 0 2 0.8 2.1 1.9 0 0.4 0 0.8 0 1.2 0 6.3-2.2 12.5-6.3 17.3C83.5 83.6 83 83.9 82.4 83.9z"/><path class="st1" d="M86.2 57.9c-0.8 0-1.5-0.4-1.8-1.2 -1.2-2.8-3-5.3-5.2-7.5 -0.8-0.8-0.8-2-0.1-2.8 0.8-0.8 2-0.8 2.8-0.1 2.6 2.5 4.7 5.5 6.1 8.8 0.4 1 0 2.2-1 2.6C86.7 57.8 86.4 57.9 86.2 57.9z"/><path class="st0" d="M27.3 57.5c-0.2 0-0.5 0-0.7-0.1 -1.3-0.4-2.1-1.8-1.7-3.1 0.3-0.9 0.6-1.8 0.9-2.7 2.4-6.3 6.4-11.9 11.6-16.3 1.2-1 2.5-1.9 3.8-2.8 1.2-0.8 2.7-0.4 3.5 0.7 0.8 1.2 0.4 2.7-0.7 3.5 -1.1 0.8-2.2 1.6-3.3 2.5 -4.5 3.8-8 8.8-10.1 14.3 -0.3 0.8-0.6 1.6-0.8 2.4C29.4 56.8 28.4 57.5 27.3 57.5z"/><path class="st3" d="M26.7 60c-0.2 0-0.4 0-0.6-0.1 -1.3-0.3-2.2-1.6-1.9-3 0.4-1.8 1-3.6 1.6-5.4 0.5-1.3 1.9-1.9 3.2-1.4s1.9 1.9 1.4 3.2c-0.6 1.5-1.1 3.1-1.4 4.7C28.8 59.2 27.8 60 26.7 60z"/><path class="st1" d="M39.1 39.6c-0.7 0-1.4-0.3-1.9-0.9 -0.9-1.1-0.8-2.6 0.3-3.5 2.4-2 5-3.8 7.8-5.2 1.2-0.6 2.7-0.1 3.4 1.1 0.6 1.2 0.1 2.7-1.1 3.4 -2.4 1.2-4.8 2.8-6.9 4.5C40.2 39.5 39.6 39.6 39.1 39.6z"/><path class="st2" d="M46.4 101.8c-0.4 0-0.8-0.1-1.1-0.3 -5.7-2.9-10.6-7.1-14.4-12.2 -0.8-1.1-0.6-2.7 0.5-3.5s2.7-0.6 3.5 0.5c3.3 4.5 7.6 8.2 12.6 10.7 1.2 0.6 1.7 2.1 1.1 3.4C48.2 101.3 47.3 101.8 46.4 101.8z"/><path class="st1" d="M82 100.8c-0.9 0-1.7-0.4-2.2-1.2 -0.7-1.2-0.3-2.7 0.9-3.4 3.5-2 6.6-4.7 9.2-7.8 3-3.5 5.2-7.5 6.6-11.9 0.2-0.6 0.4-1.2 0.5-1.9 0.3-1.3 1.7-2.1 3-1.8 1.3 0.3 2.1 1.7 1.8 3 -0.2 0.7-0.4 1.4-0.6 2.1 -1.6 5-4.1 9.6-7.5 13.6 -3 3.6-6.5 6.5-10.6 8.9C82.9 100.7 82.5 100.8 82 100.8z"/><path class="st3" d="M80.5 101.6c-0.9 0-1.8-0.5-2.2-1.3 -0.6-1.2-0.2-2.7 1.1-3.4 4.1-2.1 7.7-5 10.7-8.6 0.9-1.1 2.5-1.2 3.5-0.3 1.1 0.9 1.2 2.5 0.3 3.5 -3.4 4.1-7.5 7.3-12.2 9.8C81.3 101.5 80.9 101.6 80.5 101.6z"/><path class="st0" d="M99 79.7c-0.2 0-0.5 0-0.8-0.1 -1.3-0.4-2-1.8-1.6-3.1 0.4-1.2 0.7-2.5 1-3.8 0.3-1.4 1.6-2.2 2.9-2 1.4 0.3 2.2 1.6 2 2.9 -0.3 1.4-0.7 2.9-1.1 4.3C101 79 100.1 79.7 99 79.7z"/><path class="st2" d="M93 45.6c-0.8 0-1.5-0.3-2-1 -3.1-4-7.1-7.4-11.6-9.8 -1.2-0.6-1.7-2.2-1.1-3.4 0.6-1.2 2.2-1.7 3.4-1.1 5.1 2.7 9.7 6.5 13.2 11.2 0.8 1.1 0.6 2.7-0.5 3.5C94.1 45.4 93.6 45.6 93 45.6z"/><path class="st2" d="M2.5 54.2c-0.2 0-0.5 0-0.7-0.1 -1.6-0.4-2.6-2-2.2-3.6C0.9 44.9 3 39.4 5.8 34.4c0.8-1.5 2.6-2 4.1-1.2s2 2.6 1.2 4.1c-2.5 4.6-4.4 9.5-5.7 14.6C5 53.3 3.8 54.2 2.5 54.2z"/><path class="st1" d="M57.8 131.1c-0.1 0-0.2 0-0.3 0 -8.6-0.7-16.8-3.1-24.5-7.1 -1.5-0.8-2-2.6-1.3-4 0.8-1.5 2.6-2 4-1.3 6.9 3.6 14.4 5.8 22.2 6.5 1.7 0.1 2.9 1.6 2.7 3.2C60.6 129.9 59.3 131.1 57.8 131.1z"/><path class="st0" d="M102.1 117.8c-0.9 0-1.8-0.4-2.3-1.1 -1-1.3-0.8-3.2 0.5-4.2 4.2-3.3 7.9-7.1 11-11.4 1-1.3 2.9-1.6 4.2-0.6s1.6 2.9 0.6 4.2c-3.5 4.7-7.5 8.9-12.1 12.6C103.4 117.5 102.8 117.8 102.1 117.8z"/><path class="st3" d="M111.5 29.1c-0.9 0-1.7-0.4-2.3-1.1 -5.2-6.2-11.4-11.3-18.6-15 -1.5-0.8-2-2.6-1.3-4 0.8-1.5 2.6-2 4-1.3 7.9 4.1 14.8 9.7 20.4 16.5 1.1 1.3 0.9 3.2-0.4 4.2C112.8 28.9 112.2 29.1 111.5 29.1z"/><path class="st0" d="M68.7 6.6c-0.1 0-0.2 0-0.3 0 -1.7-0.1-3.4-0.2-5.2-0.2 -1.7 0-3-1.3-3-3s1.3-3 3-3c1.9 0 3.8 0.1 5.7 0.2 1.7 0.1 2.9 1.6 2.7 3.2C71.5 5.4 70.2 6.6 68.7 6.6z"/><path class="st4" d="M119.6 40.5h3.6l12 15.5V40.5h3.9v22.4h-3.3L123.4 47v15.9h-3.9L119.6 40.5 119.6 40.5z"/><path class="st4" d="M154.2 62.9v-2.1c-1.2 1.4-2.9 2.4-5.5 2.4 -3.2 0-6-1.8-6-5.2v-0.1c0-3.7 2.9-5.5 6.8-5.5 2 0 3.4 0.3 4.7 0.7v-0.3c0-2.3-1.5-3.6-4.2-3.6 -1.9 0-3.3 0.4-4.8 1.1l-1.1-3.1c1.9-0.8 3.7-1.4 6.4-1.4 5 0 7.4 2.6 7.4 7.1v10L154.2 62.9 154.2 62.9zM154.2 55.8c-1-0.4-2.4-0.7-3.9-0.7 -2.4 0-3.9 1-3.9 2.6v0.1c0 1.6 1.4 2.5 3.3 2.5 2.6 0 4.5-1.4 4.5-3.6V55.8z"/><path class="st4" d="M160.5 60.7l1.7-2.6c1.8 1.4 3.8 2.1 5.5 2.1s2.6-0.7 2.6-1.8v-0.1c0-1.3-1.8-1.8-3.8-2.4 -2.5-0.7-5.3-1.7-5.3-5v-0.1c0-3.2 2.7-5.2 6-5.2 2.1 0 4.4 0.7 6.2 1.9l-1.5 2.8c-1.6-1-3.4-1.6-4.8-1.6 -1.5 0-2.4 0.7-2.4 1.7v0.1c0 1.2 1.8 1.7 3.8 2.4 2.5 0.8 5.2 1.9 5.2 4.9v0.1c0 3.6-2.8 5.3-6.3 5.3C165.2 63.2 162.6 62.3 160.5 60.7z"/><path class="st4" d="M177.1 39.5h3.9v9.1c1.1-1.6 2.7-3 5.3-3 3.8 0 6 2.6 6 6.5v10.8h-3.9v-9.6c0-2.6-1.3-4.1-3.6-4.1 -2.2 0-3.8 1.6-3.8 4.2v9.5h-3.9V39.5z"/><path class="st4" d="M193.6 46h4.2l4.5 12.4 4.6-12.4h4.1l-6.9 17h-3.5L193.6 46z"/><path class="st4" d="M213.2 39.7h4.2v3.7h-4.2V39.7zM213.4 46h3.9v16.9h-3.9V46z"/><path class="st4" d="M221.5 39.5h3.9v23.4h-3.9V39.5z"/><path class="st4" d="M229.6 39.5h3.9v23.4h-3.9V39.5z"/><path class="st4" d="M236.7 54.5L236.7 54.5c0-4.9 3.4-8.9 8.3-8.9 5.4 0 8.1 4.2 8.1 9.1 0 0.4 0 0.7-0.1 1.1h-12.4c0.4 2.8 2.4 4.3 4.9 4.3 1.9 0 3.2-0.7 4.6-2l2.3 2c-1.6 1.9-3.8 3.2-6.9 3.2C240.5 63.3 236.7 59.7 236.7 54.5zM249.2 53.2c-0.3-2.5-1.7-4.4-4.3-4.4 -2.4 0-4 1.8-4.4 4.4H249.2z"/><path class="st4" d="M119.7 67.9h8.2c2.2 0 4.1 0.7 5.2 1.8 0.8 0.8 1.3 1.9 1.3 3.1v0.1c0 2.7-1.8 4.1-3.4 4.7 2.4 0.6 4.5 2 4.5 4.8v0.1c0 3.3-2.8 5.4-7.2 5.4h-8.7L119.7 67.9 119.7 67.9zM127.7 77.1c3 0 5.1-1.5 5.1-4.1v-0.1c0-2.2-1.8-3.7-5-3.7h-6.7V77h6.6V77.1zM128.4 86.5c3.4 0 5.6-1.6 5.6-4.1v-0.1c0-2.5-2.1-3.9-6.1-3.9h-6.8v8h7.3V86.5z"/><path class="st4" d="M139.3 67.6h1.7v1.9h-1.7L139.3 67.6 139.3 67.6zM139.5 73.3h1.4v14.5h-1.4V73.3z"/><path class="st4" d="M144.4 80.7L144.4 80.7c0-4.1 3.2-7.7 7.5-7.7s7.4 3.5 7.4 7.5v0.1c0 4.1-3.2 7.6-7.5 7.6S144.4 84.7 144.4 80.7zM157.8 80.7L157.8 80.7c0-3.6-2.6-6.4-6-6.4s-5.9 2.8-5.9 6.2v0.1c0 3.5 2.6 6.3 6 6.3S157.8 84.1 157.8 80.7z"/><path class="st4" d="M161.2 86.1L162 85c1.6 1.2 3.4 1.9 5.2 1.9 2 0 3.5-1.1 3.5-2.8V84c0-1.7-1.8-2.3-3.8-2.9 -2.4-0.7-5-1.4-5-4V77c0-2.3 2-4 4.8-4 1.7 0 3.7 0.6 5.2 1.6l-0.7 1.2c-1.3-0.9-2.9-1.5-4.5-1.5 -2 0-3.3 1.1-3.3 2.5v0.1c0 1.6 2 2.2 4 2.8 2.3 0.7 4.8 1.5 4.8 4.1v0.1c0 2.6-2.2 4.2-5 4.2C165.1 88.2 162.8 87.3 161.2 86.1z"/><path class="st4" d="M174.7 80.7L174.7 80.7c0-4.1 3.2-7.7 7.4-7.7 2.7 0 4.4 1.3 5.8 2.7l-1 1c-1.3-1.3-2.7-2.4-4.8-2.4 -3.3 0-5.9 2.8-5.9 6.2v0.1c0 3.5 2.6 6.3 6 6.3 2.1 0 3.6-1.1 4.9-2.4l1 0.9c-1.5 1.7-3.2 2.9-5.9 2.9C177.9 88.2 174.7 84.7 174.7 80.7z"/><path class="st4" d="M190.8 67.6h1.7v1.9h-1.7V67.6zM191 73.3h1.4v14.5H191V73.3z"/><path class="st4" d="M195.9 80.6L195.9 80.6c0-4.3 3-7.6 6.9-7.6 4.1 0 6.7 3.3 6.7 7.6 0 0.3 0 0.3 0 0.6h-12.1c0.3 3.6 2.8 5.7 5.7 5.7 2.3 0 3.8-1 5-2.3l1 0.9c-1.5 1.6-3.2 2.7-6 2.7C199.2 88.2 195.9 85.2 195.9 80.6zM208 79.9c-0.2-2.9-1.9-5.6-5.2-5.6 -2.9 0-5.1 2.4-5.4 5.6H208z"/><path class="st4" d="M212.9 73.3h1.4V76c1-1.7 2.6-3 5.2-3 3.7 0 5.8 2.5 5.8 6v8.9h-1.4v-8.6c0-3-1.7-5-4.6-5 -2.8 0-5 2.2-5 5.2v8.4h-1.4V73.3z"/><path class="st4" d="M228.6 80.7L228.6 80.7c0-4.1 3.2-7.7 7.4-7.7 2.7 0 4.4 1.3 5.8 2.7l-1 1c-1.3-1.3-2.7-2.4-4.8-2.4 -3.3 0-5.9 2.8-5.9 6.2v0.1c0 3.5 2.6 6.3 6 6.3 2.1 0 3.6-1.1 4.9-2.4l1 0.9c-1.5 1.7-3.2 2.9-5.9 2.9C231.9 88.2 228.6 84.7 228.6 80.7z"/><path class="st4" d="M243.8 80.6L243.8 80.6c0-4.3 3-7.6 6.9-7.6 4.1 0 6.7 3.3 6.7 7.6 0 0.3 0 0.3 0 0.6h-12.1c0.3 3.6 2.8 5.7 5.7 5.7 2.3 0 3.8-1 5-2.3l1 0.9c-1.5 1.6-3.2 2.7-6 2.7C247.1 88.2 243.8 85.2 243.8 80.6zM255.8 79.9c-0.2-2.9-1.9-5.6-5.2-5.6 -2.9 0-5.1 2.4-5.4 5.6H255.8z"/><path class="st4" d="M259.4 86.1l0.8-1.1c1.6 1.2 3.4 1.9 5.2 1.9 2 0 3.5-1.1 3.5-2.8V84c0-1.7-1.8-2.3-3.8-2.9 -2.4-0.7-5-1.4-5-4V77c0-2.3 2-4 4.8-4 1.7 0 3.7 0.6 5.2 1.6l-0.7 1.2c-1.3-0.9-2.9-1.5-4.5-1.5 -2 0-3.3 1.1-3.3 2.5v0.1c0 1.6 2 2.2 4 2.8 2.3 0.7 4.8 1.5 4.8 4.1v0.1c0 2.6-2.2 4.2-5 4.2C263.2 88.2 260.9 87.3 259.4 86.1z"/></svg>